<svg xmlns:xlink="http://www.w3.org/1999/xlink" xmlns="http://www.w3.org/2000/svg" width="17" height="20" viewBox="0 0 17 20" fill="none">
<path d="M4.6324 7.5H2.72237C2.53472 7.5 2.38728 7.65325 2.34707 7.8483L1 18.5681C1 18.6865 1.04021 18.8049 1.07372 18.8816C1.14744 18.9582 1.26137 19 1.3753 19H15.3084C15.5363 19 15.6837 18.8467 15.6837 18.6099C15.6837 18.5681 15.6837 18.5333 15.6837 18.4915L14.33 7.85527C14.2897 7.66022 14.1423 7.50697 13.9547 7.50697H12.0446L4.6324 7.5Z" stroke="#E7E7E7" stroke-miterlimit="10" stroke-linecap="round" stroke-linejoin="round"/>
<path d="M4.83301 5.5V4.69199C4.83301 2.63701 6.40794 1 8.38498 1C10.362 1 11.937 2.63701 11.937 4.69199V5.5" stroke="#E7E7E7" stroke-miterlimit="10" stroke-linecap="round" stroke-linejoin="round"/>
</svg>